# WaveFront *.obj file (generated by Autodesk ATF)

mtllib celda1.mtl

g Cuerpo1

v 85.000000 39.000001 -13.000000
v 85.000000 39.000001 13.000000
v 80.000000 39.000001 13.000000
v 80.000000 39.000001 -13.000000
v 80.000000 5.000000 -13.000000
v 85.000000 5.000000 -13.000000
v 80.000000 5.000000 13.000000
v 80.000000 5.000000 40.000000
v 80.000000 60.000000 40.000000
v 80.000000 60.000000 -45.000000
v 80.000000 5.000000 -45.000000
v 85.000000 5.000000 13.000000
v 34.000000 27.000000 40.000000
v 34.000000 50.000000 40.000000
v 34.000000 50.000000 45.000000
v 34.000000 27.000000 45.000000
v 34.000000 50.000000 -45.000000
v 34.000000 27.000000 -45.000000
v 34.000000 27.000000 -50.000000
v 34.000000 50.000000 -50.000000
v 50.000000 27.000000 40.000000
v 50.000000 27.000000 45.000000
v 50.000000 50.000000 40.000000
v 50.000000 50.000000 45.000000
v 50.000000 50.000000 -45.000000
v 50.000000 50.000000 -50.000000
v 50.000000 27.000000 -45.000000
v 50.000000 27.000000 -50.000000
v -20.000000 50.000000 40.000000
v -4.000000 50.000000 40.000000
v -4.000000 50.000000 45.000000
v -20.000000 50.000000 45.000000
v -4.000000 50.000000 -45.000000
v -20.000000 50.000000 -45.000000
v -20.000000 50.000000 -50.000000
v -4.000000 50.000000 -50.000000
v -20.000000 27.000000 40.000000
v -20.000000 27.000000 45.000000
v -4.000000 27.000000 40.000000
v -4.000000 27.000000 45.000000
v -4.000000 27.000000 -45.000000
v -4.000000 27.000000 -50.000000
v -20.000000 27.000000 -45.000000
v -20.000000 27.000000 -50.000000
v -50.000000 5.000000 -45.000000
v -50.000000 5.000000 40.000000
v -50.000000 60.000000 -45.000000
v -50.000000 60.000000 40.000000
v -55.000000 0.000000 -50.000000
v -55.000000 0.000000 45.000000
v -55.000000 60.000000 45.000000
v -55.000000 60.000000 -50.000000
v 85.000000 0.000000 -50.000000
v 85.000000 60.000000 -50.000000
v 85.000000 0.000000 45.000000
v 85.000000 60.000000 45.000000
vt -0.000000 0.000000 0.000000
vt -2.600000 0.000000 0.000000
vt -0.000000 -0.500000 0.000000
vt -2.600000 -0.500000 0.000000
vt 0.483930 0.500000 0.000000
vt -2.916070 0.500000 0.000000
vt 0.483930 0.000000 0.000000
vt -2.916070 0.000000 0.000000
vt 3.200000 0.500000 0.000000
vt 3.200000 3.900000 0.000000
vt 0.000000 0.500000 0.000000
vt 0.000000 6.000000 0.000000
vt 8.500000 6.000000 0.000000
vt 5.800000 3.900000 0.000000
vt 8.500000 0.500000 0.000000
vt 5.800000 0.500000 0.000000
vt -3.400000 0.000000 0.000000
vt -0.000000 0.000000 0.000000
vt -3.400000 0.500000 0.000000
vt -0.000000 0.500000 0.000000
vt -0.000000 -9.000000 0.000000
vt -2.300000 -9.000000 0.000000
vt -0.000000 -9.500000 0.000000
vt -2.300000 -9.500000 0.000000
vt -2.300000 -0.500000 0.000000
vt -0.000000 -0.500000 0.000000
vt -2.300000 0.000000 0.000000
vt -0.000000 0.000000 0.000000
vt 0.000000 -9.000000 0.000000
vt -1.600000 -9.000000 0.000000
vt 0.000000 -9.500000 0.000000
vt -1.600000 -9.500000 0.000000
vt -0.000000 -9.000000 0.000000
vt -1.600000 -9.000000 0.000000
vt -0.000000 -9.500000 0.000000
vt -1.600000 -9.500000 0.000000
vt -1.600000 -0.500000 0.000000
vt -0.000000 -0.500000 0.000000
vt -1.600000 0.000000 0.000000
vt -0.000000 0.000000 0.000000
vt 0.000000 -9.000000 0.000000
vt -2.300000 -9.000000 0.000000
vt 0.000000 -9.500000 0.000000
vt -2.300000 -9.500000 0.000000
vt -2.300000 -0.500000 0.000000
vt 0.000000 -0.500000 0.000000
vt -2.300000 0.000000 0.000000
vt 0.000000 0.000000 0.000000
vt -1.600000 -0.500000 0.000000
vt 0.000000 -0.500000 0.000000
vt -1.600000 0.000000 0.000000
vt 0.000000 0.000000 0.000000
vt -0.000000 -9.000000 0.000000
vt -1.600000 -9.000000 0.000000
vt -0.000000 -9.500000 0.000000
vt -1.600000 -9.500000 0.000000
vt -1.600000 -0.500000 0.000000
vt -0.000000 -0.500000 0.000000
vt -1.600000 0.000000 0.000000
vt -0.000000 0.000000 0.000000
vt -0.000000 -9.000000 0.000000
vt -2.300000 -9.000000 0.000000
vt -0.000000 -9.500000 0.000000
vt -2.300000 -9.500000 0.000000
vt -0.000000 -9.000000 0.000000
vt -2.300000 -9.000000 0.000000
vt -0.000000 -9.500000 0.000000
vt -2.300000 -9.500000 0.000000
vt -2.300000 -0.500000 0.000000
vt -0.000000 -0.500000 0.000000
vt -2.300000 0.000000 0.000000
vt -0.000000 0.000000 0.000000
vt -0.000000 -9.000000 0.000000
vt -1.600000 -9.000000 0.000000
vt -0.000000 -9.500000 0.000000
vt -1.600000 -9.500000 0.000000
vt -1.600000 -0.500000 0.000000
vt -0.000000 -0.500000 0.000000
vt -1.600000 0.000000 0.000000
vt -0.000000 0.000000 0.000000
vt -2.300000 -0.500000 0.000000
vt -0.000000 -0.500000 0.000000
vt -2.300000 0.000000 0.000000
vt -0.000000 0.000000 0.000000
vt -4.250000 6.500000 0.000000
vt -4.250000 -6.500000 0.000000
vt -1.050000 6.500000 0.000000
vt 4.250000 -6.500000 0.000000
vt 1.550000 6.500000 0.000000
vt 4.250000 6.500000 0.000000
vt 1.550000 7.000000 0.000000
vt -1.050000 7.000000 0.000000
vt 8.400000 5.000000 0.000000
vt 10.000000 5.000000 0.000000
vt 13.000000 6.000000 0.000000
vt 10.000000 2.700000 0.000000
vt 13.000000 0.500000 0.000000
vt 8.400000 2.700000 0.000000
vt 4.600000 2.700000 0.000000
vt 4.600000 5.000000 0.000000
vt 0.000000 6.000000 0.000000
vt 0.000000 0.500000 0.000000
vt 3.000000 2.700000 0.000000
vt 3.000000 5.000000 0.000000
vt 0.000000 0.500000 0.000000
vt 8.500000 0.500000 0.000000
vt 0.000000 6.000000 0.000000
vt 8.500000 6.000000 0.000000
vt 3.000000 5.000000 0.000000
vt 0.000000 6.000000 0.000000
vt 3.000000 2.700000 0.000000
vt 0.000000 0.500000 0.000000
vt 4.600000 2.700000 0.000000
vt 13.000000 0.500000 0.000000
vt 8.400000 2.700000 0.000000
vt 10.000000 2.700000 0.000000
vt 13.000000 6.000000 0.000000
vt 10.000000 5.000000 0.000000
vt 8.400000 5.000000 0.000000
vt 4.600000 5.000000 0.000000
vt 0.000000 0.000000 0.000000
vt 9.500000 0.000000 0.000000
vt 0.000000 6.000000 0.000000
vt 9.500000 6.000000 0.000000
vt 3.500000 5.000000 0.000000
vt -0.000000 6.000000 0.000000
vt 3.500000 2.700000 0.000000
vt -0.000000 0.000000 0.000000
vt 5.100000 2.700000 0.000000
vt 14.000000 0.000000 0.000000
vt 8.900000 2.700000 0.000000
vt 10.500000 2.700000 0.000000
vt 14.000000 6.000000 0.000000
vt 10.500000 5.000000 0.000000
vt 8.900000 5.000000 0.000000
vt 5.100000 5.000000 0.000000
vt 5.800000 0.500000 0.000000
vt 9.500000 0.000000 0.000000
vt 5.800000 3.900000 0.000000
vt 9.500000 6.000000 0.000000
vt -0.000000 6.000000 0.000000
vt -0.000000 0.000000 0.000000
vt 3.200000 0.500000 0.000000
vt 3.200000 3.900000 0.000000
vt 8.900000 5.000000 0.000000
vt 10.500000 5.000000 0.000000
vt 14.000000 6.000000 0.000000
vt 10.500000 2.700000 0.000000
vt 14.000000 0.000000 0.000000
vt 8.900000 2.700000 0.000000
vt 5.100000 2.700000 0.000000
vt 5.100000 5.000000 0.000000
vt 0.000000 6.000000 0.000000
vt 0.000000 0.000000 0.000000
vt 3.500000 2.700000 0.000000
vt 3.500000 5.000000 0.000000
vt 4.250000 -6.500000 0.000000
vt 4.750000 -7.000000 0.000000
vt 4.250000 6.500000 0.000000
vt 4.750000 7.000000 0.000000
vt -4.750000 7.000000 0.000000
vt -4.250000 -6.500000 0.000000
vt -4.750000 -7.000000 0.000000
vt -4.250000 6.500000 0.000000
vt -7.000000 -4.750000 0.000000
vt 7.000000 -4.750000 0.000000
vt -7.000000 4.750000 0.000000
vt 7.000000 4.750000 0.000000
vn 0.000000 -0.100000 0.000000
vn 0.000000 -0.100000 0.000000
vn 0.000000 -0.100000 0.000000
vn 0.000000 -0.100000 0.000000
vn 0.000000 0.000000 0.100000
vn 0.000000 0.000000 0.100000
vn 0.000000 0.000000 0.100000
vn 0.000000 0.000000 0.100000
vn -0.100000 0.000000 0.000000
vn -0.100000 0.000000 0.000000
vn -0.100000 0.000000 0.000000
vn -0.100000 0.000000 0.000000
vn -0.100000 0.000000 0.000000
vn -0.100000 0.000000 0.000000
vn -0.100000 0.000000 0.000000
vn -0.100000 0.000000 0.000000
vn -0.000000 0.000000 -0.100000
vn -0.000000 0.000000 -0.100000
vn -0.000000 0.000000 -0.100000
vn -0.000000 0.000000 -0.100000
vn 0.100000 0.000000 0.000000
vn 0.100000 0.000000 0.000000
vn 0.100000 0.000000 0.000000
vn 0.100000 0.000000 0.000000
vn 0.100000 0.000000 0.000000
vn 0.100000 0.000000 0.000000
vn 0.100000 0.000000 0.000000
vn 0.100000 0.000000 0.000000
vn -0.000000 0.100000 -0.000000
vn -0.000000 0.100000 -0.000000
vn -0.000000 0.100000 -0.000000
vn -0.000000 0.100000 -0.000000
vn 0.000000 -0.100000 0.000000
vn 0.000000 -0.100000 0.000000
vn 0.000000 -0.100000 0.000000
vn 0.000000 -0.100000 0.000000
vn 0.000000 -0.100000 0.000000
vn 0.000000 -0.100000 0.000000
vn 0.000000 -0.100000 0.000000
vn 0.000000 -0.100000 0.000000
vn -0.100000 0.000000 -0.000000
vn -0.100000 0.000000 -0.000000
vn -0.100000 0.000000 -0.000000
vn -0.100000 0.000000 -0.000000
vn -0.100000 0.000000 -0.000000
vn -0.100000 0.000000 -0.000000
vn -0.100000 0.000000 -0.000000
vn -0.100000 0.000000 -0.000000
vn -0.000000 0.100000 -0.000000
vn -0.000000 0.100000 -0.000000
vn -0.000000 0.100000 -0.000000
vn -0.000000 0.100000 -0.000000
vn 0.000000 -0.100000 0.000000
vn 0.000000 -0.100000 0.000000
vn 0.000000 -0.100000 0.000000
vn 0.000000 -0.100000 0.000000
vn 0.000000 -0.100000 0.000000
vn 0.000000 -0.100000 0.000000
vn 0.000000 -0.100000 0.000000
vn 0.000000 -0.100000 0.000000
vn 0.100000 0.000000 0.000000
vn 0.100000 0.000000 0.000000
vn 0.100000 0.000000 0.000000
vn 0.100000 0.000000 0.000000
vn -0.100000 0.000000 0.000000
vn -0.100000 0.000000 0.000000
vn -0.100000 0.000000 0.000000
vn -0.100000 0.000000 0.000000
vn -0.100000 0.000000 0.000000
vn -0.100000 0.000000 0.000000
vn -0.100000 0.000000 0.000000
vn -0.100000 0.000000 0.000000
vn 0.000000 0.100000 0.000000
vn 0.000000 0.100000 0.000000
vn 0.000000 0.100000 0.000000
vn 0.000000 0.100000 0.000000
vn 0.000000 0.100000 0.000000
vn 0.000000 0.100000 0.000000
vn 0.000000 0.100000 0.000000
vn 0.000000 0.100000 0.000000
vn 0.100000 0.000000 0.000000
vn 0.100000 0.000000 0.000000
vn 0.100000 0.000000 0.000000
vn 0.100000 0.000000 0.000000
vn 0.000000 0.100000 0.000000
vn 0.000000 0.100000 0.000000
vn 0.000000 0.100000 0.000000
vn 0.000000 0.100000 0.000000
vn 0.000000 0.100000 0.000000
vn 0.000000 0.100000 0.000000
vn 0.000000 0.100000 0.000000
vn 0.000000 0.100000 0.000000
vn 0.000000 0.000000 0.100000
vn 0.000000 0.000000 0.100000
vn 0.000000 0.000000 0.100000
vn 0.000000 0.000000 0.100000
vn 0.000000 0.000000 0.100000
vn 0.000000 0.000000 0.100000
vn 0.000000 0.000000 0.100000
vn 0.000000 0.000000 0.100000
vn 0.000000 0.000000 0.100000
vn 0.000000 0.000000 0.100000
vn 0.000000 0.000000 0.100000
vn 0.000000 0.000000 0.100000
vn 0.100000 -0.000000 0.000000
vn 0.100000 -0.000000 0.000000
vn 0.100000 -0.000000 0.000000
vn 0.100000 -0.000000 0.000000
vn 0.000000 0.000000 -0.100000
vn 0.000000 0.000000 -0.100000
vn 0.000000 0.000000 -0.100000
vn 0.000000 0.000000 -0.100000
vn 0.000000 0.000000 -0.100000
vn 0.000000 0.000000 -0.100000
vn 0.000000 0.000000 -0.100000
vn 0.000000 0.000000 -0.100000
vn 0.000000 0.000000 -0.100000
vn 0.000000 0.000000 -0.100000
vn 0.000000 0.000000 -0.100000
vn 0.000000 0.000000 -0.100000
vn -0.100000 0.000000 0.000000
vn -0.100000 0.000000 0.000000
vn -0.100000 0.000000 0.000000
vn -0.100000 0.000000 0.000000
vn 0.000000 0.000000 -0.100000
vn 0.000000 0.000000 -0.100000
vn 0.000000 0.000000 -0.100000
vn 0.000000 0.000000 -0.100000
vn 0.000000 0.000000 -0.100000
vn 0.000000 0.000000 -0.100000
vn 0.000000 0.000000 -0.100000
vn 0.000000 0.000000 -0.100000
vn 0.000000 0.000000 -0.100000
vn 0.000000 0.000000 -0.100000
vn 0.000000 0.000000 -0.100000
vn 0.000000 0.000000 -0.100000
vn 0.100000 0.000000 0.000000
vn 0.100000 0.000000 0.000000
vn 0.100000 0.000000 0.000000
vn 0.100000 0.000000 0.000000
vn 0.100000 0.000000 0.000000
vn 0.100000 0.000000 0.000000
vn 0.100000 0.000000 0.000000
vn 0.100000 0.000000 0.000000
vn 0.000000 -0.000000 0.100000
vn 0.000000 -0.000000 0.100000
vn 0.000000 -0.000000 0.100000
vn 0.000000 -0.000000 0.100000
vn 0.000000 -0.000000 0.100000
vn 0.000000 -0.000000 0.100000
vn 0.000000 -0.000000 0.100000
vn 0.000000 -0.000000 0.100000
vn 0.000000 -0.000000 0.100000
vn 0.000000 -0.000000 0.100000
vn 0.000000 -0.000000 0.100000
vn 0.000000 -0.000000 0.100000
vn 0.000000 0.100000 0.000000
vn 0.000000 0.100000 0.000000
vn 0.000000 0.100000 0.000000
vn 0.000000 0.100000 0.000000
vn 0.000000 0.100000 0.000000
vn 0.000000 0.100000 0.000000
vn 0.000000 0.100000 0.000000
vn 0.000000 0.100000 0.000000
vn 0.000000 -0.100000 0.000000
vn 0.000000 -0.100000 0.000000
vn 0.000000 -0.100000 0.000000
vn 0.000000 -0.100000 0.000000
usemtl Hormigón_-_Mosaicos
f 1/1/1 2/2/2 4/3/3
f 4/3/3 2/2/2 3/4/4
f 4/5/5 5/6/6 1/7/7
f 1/7/7 5/6/6 6/8/8
f 5/9/9 4/10/10 11/11/11
f 11/11/11 4/10/10 10/12/12
f 10/12/12 4/10/10 9/13/13
f 9/13/13 4/10/10 3/14/14
f 9/13/13 3/14/14 8/15/15
f 8/15/15 3/14/14 7/16/16
f 2/17/17 12/18/18 3/19/19
f 3/19/19 12/18/18 7/20/20
f 13/21/21 14/22/22 16/23/23
f 16/23/23 14/22/22 15/24/24
f 17/25/25 18/26/26 20/27/27
f 20/27/27 18/26/26 19/28/28
f 21/29/29 13/30/30 22/31/31
f 22/31/31 13/30/30 16/32/32
f 14/33/33 23/34/34 15/35/35
f 15/35/35 23/34/34 24/36/36
f 25/37/37 17/38/38 26/39/39
f 26/39/39 17/38/38 20/40/40
f 23/41/41 21/42/42 24/43/43
f 24/43/43 21/42/42 22/44/44
f 27/45/45 25/46/46 28/47/47
f 28/47/47 25/46/46 26/48/48
f 18/49/49 27/50/50 19/51/51
f 19/51/51 27/50/50 28/52/52
f 29/53/53 30/54/54 32/55/55
f 32/55/55 30/54/54 31/56/56
f 33/57/57 34/58/58 36/59/59
f 36/59/59 34/58/58 35/60/60
f 37/61/61 29/62/62 38/63/63
f 38/63/63 29/62/62 32/64/64
f 30/65/65 39/66/66 31/67/67
f 31/67/67 39/66/66 40/68/68
f 41/69/69 33/70/70 42/71/71
f 42/71/71 33/70/70 36/72/72
f 39/73/73 37/74/74 40/75/75
f 40/75/75 37/74/74 38/76/76
f 43/77/77 41/78/78 44/79/79
f 44/79/79 41/78/78 42/80/80
f 34/81/81 43/82/82 35/83/83
f 35/83/83 43/82/82 44/84/84
f 11/85/85 45/86/86 5/87/87
f 5/87/87 45/86/86 46/88/88
f 5/87/87 46/88/88 7/89/89
f 7/89/89 46/88/88 8/90/90
f 12/91/91 6/92/92 7/89/89
f 7/89/89 6/92/92 5/87/87
f 17/93/93 25/94/94 10/95/95
f 10/95/95 25/94/94 27/96/96
f 10/95/95 27/96/96 11/97/97
f 11/97/97 27/96/96 18/98/98
f 11/97/97 18/98/98 41/99/99
f 41/99/99 18/98/98 33/100/100
f 33/100/100 18/98/98 17/93/93
f 33/100/100 17/93/93 47/101/101
f 47/101/101 17/93/93 10/95/95
f 11/97/97 41/99/99 45/102/102
f 45/102/102 41/99/99 43/103/103
f 45/102/102 43/103/103 47/101/101
f 47/101/101 43/103/103 34/104/104
f 47/101/101 34/104/104 33/100/100
f 46/105/105 45/106/106 48/107/107
f 48/107/107 45/106/106 47/108/108
f 23/109/109 9/110/110 21/111/111
f 21/111/111 9/110/110 8/112/112
f 21/111/111 8/112/112 13/113/113
f 13/113/113 8/112/112 46/114/114
f 13/113/113 46/114/114 39/115/115
f 39/115/115 46/114/114 37/116/116
f 37/116/116 46/114/114 48/117/117
f 37/116/116 48/117/117 29/118/118
f 29/118/118 48/117/117 30/119/119
f 30/119/119 48/117/117 9/110/110
f 30/119/119 9/110/110 14/120/120
f 14/120/120 9/110/110 23/109/109
f 30/119/119 14/120/120 39/115/115
f 39/115/115 14/120/120 13/113/113
f 49/121/121 50/122/122 52/123/123
f 52/123/123 50/122/122 51/124/124
f 26/125/125 54/126/126 28/127/127
f 28/127/127 54/126/126 53/128/128
f 28/127/127 53/128/128 19/129/129
f 19/129/129 53/128/128 49/130/130
f 19/129/129 49/130/130 42/131/131
f 42/131/131 49/130/130 44/132/132
f 44/132/132 49/130/130 52/133/133
f 44/132/132 52/133/133 35/134/134
f 35/134/134 52/133/133 36/135/135
f 36/135/135 52/133/133 54/126/126
f 36/135/135 54/126/126 20/136/136
f 20/136/136 54/126/126 26/125/125
f 36/135/135 20/136/136 42/131/131
f 42/131/131 20/136/136 19/129/129
f 6/137/137 53/138/138 1/139/139
f 1/139/139 53/138/138 54/140/140
f 1/139/139 54/140/140 56/141/141
f 53/138/138 6/137/137 55/142/142
f 55/142/142 6/137/137 12/143/143
f 55/142/142 12/143/143 2/144/144
f 55/142/142 2/144/144 56/141/141
f 56/141/141 2/144/144 1/139/139
f 15/145/145 24/146/146 56/147/147
f 56/147/147 24/146/146 22/148/148
f 56/147/147 22/148/148 55/149/149
f 55/149/149 22/148/148 16/150/150
f 55/149/149 16/150/150 40/151/151
f 40/151/151 16/150/150 31/152/152
f 31/152/152 16/150/150 15/145/145
f 31/152/152 15/145/145 51/153/153
f 51/153/153 15/145/145 56/147/147
f 55/149/149 40/151/151 50/154/154
f 50/154/154 40/151/151 38/155/155
f 50/154/154 38/155/155 51/153/153
f 51/153/153 38/155/155 32/156/156
f 51/153/153 32/156/156 31/152/152
f 48/157/157 51/158/158 9/159/159
f 9/159/159 51/158/158 56/160/160
f 9/159/159 56/160/160 54/161/161
f 48/157/157 47/162/162 51/158/158
f 51/158/158 47/162/162 52/163/163
f 52/163/163 47/162/162 10/164/164
f 52/163/163 10/164/164 54/161/161
f 54/161/161 10/164/164 9/159/159
f 55/165/165 50/166/166 53/167/167
f 53/167/167 50/166/166 49/168/168
# 56 vertices
# 168 texture params
# 168 normals
# 128 facets

# 1 groups
